<?xml version="1.0" encoding="utf-8" standalone="no"?>
<!DOCTYPE svg PUBLIC "-//W3C//DTD SVG 1.1//EN"
  "http://www.w3.org/Graphics/SVG/1.1/DTD/svg11.dtd">
<svg xmlns:xlink="http://www.w3.org/1999/xlink" width="460.8pt" height="345.6pt" viewBox="0 0 460.8 345.6" xmlns="http://www.w3.org/2000/svg" version="1.1">
 <metadata>
  <rdf:RDF xmlns:dc="http://purl.org/dc/elements/1.1/" xmlns:cc="http://creativecommons.org/ns#" xmlns:rdf="http://www.w3.org/1999/02/22-rdf-syntax-ns#">
   <cc:Work>
    <dc:type rdf:resource="http://purl.org/dc/dcmitype/StillImage"/>
    <dc:date>2024-03-30T19:17:47.754564</dc:date>
    <dc:format>image/svg+xml</dc:format>
    <dc:creator>
     <cc:Agent>
      <dc:title>Matplotlib v3.8.0, https://matplotlib.org/</dc:title>
     </cc:Agent>
    </dc:creator>
   </cc:Work>
  </rdf:RDF>
 </metadata>
 <defs>
  <style type="text/css">*{stroke-linejoin: round; stroke-linecap: butt}</style>
 </defs>
 <g id="figure_1">
  <g id="patch_1">
   <path d="M 0 345.6 
L 460.8 345.6 
L 460.8 0 
L 0 0 
z
" style="fill: #ffffff"/>
  </g>
  <g id="axes_1">
   <g id="patch_2">
    <path d="M 57.6 307.584 
L 414.72 307.584 
L 414.72 41.472 
L 57.6 41.472 
z
" style="fill: #ffffff"/>
   </g>
   <g id="matplotlib.axis_1">
    <g id="xtick_1">
     <g id="line2d_1">
      <path d="M 57.6 307.584 
L 57.6 41.472 
" clip-path="url(#pd83b1d4e8b)" style="fill: none; stroke: #cccccc; stroke-width: 0.8; stroke-linecap: round"/>
     </g>
     <g id="text_1">
      <!-- $\mathdefault{2^{0}}$ -->
      <g style="fill: #262626" transform="translate(51.6864 323.90795) scale(0.1056 -0.1056)">
       <defs>
        <path id="DejaVuSans-32" d="M 1228 531 
L 3431 531 
L 3431 0 
L 469 0 
L 469 531 
Q 828 903 1448 1529 
Q 2069 2156 2228 2338 
Q 2531 2678 2651 2914 
Q 2772 3150 2772 3378 
Q 2772 3750 2511 3984 
Q 2250 4219 1831 4219 
Q 1534 4219 1204 4116 
Q 875 4013 500 3803 
L 500 4441 
Q 881 4594 1212 4672 
Q 1544 4750 1819 4750 
Q 2544 4750 2975 4387 
Q 3406 4025 3406 3419 
Q 3406 3131 3298 2873 
Q 3191 2616 2906 2266 
Q 2828 2175 2409 1742 
Q 1991 1309 1228 531 
z
" transform="scale(0.015625)"/>
        <path id="DejaVuSans-30" d="M 2034 4250 
Q 1547 4250 1301 3770 
Q 1056 3291 1056 2328 
Q 1056 1369 1301 889 
Q 1547 409 2034 409 
Q 2525 409 2770 889 
Q 3016 1369 3016 2328 
Q 3016 3291 2770 3770 
Q 2525 4250 2034 4250 
z
M 2034 4750 
Q 2819 4750 3233 4129 
Q 3647 3509 3647 2328 
Q 3647 1150 3233 529 
Q 2819 -91 2034 -91 
Q 1250 -91 836 529 
Q 422 1150 422 2328 
Q 422 3509 836 4129 
Q 1250 4750 2034 4750 
z
" transform="scale(0.015625)"/>
       </defs>
       <use xlink:href="#DejaVuSans-32" transform="translate(0 0.765625)"/>
       <use xlink:href="#DejaVuSans-30" transform="translate(64.580078 39.046875) scale(0.7)"/>
      </g>
     </g>
    </g>
    <g id="xtick_2">
     <g id="line2d_2">
      <path d="M 117.12 307.584 
L 117.12 41.472 
" clip-path="url(#pd83b1d4e8b)" style="fill: none; stroke: #cccccc; stroke-width: 0.8; stroke-linecap: round"/>
     </g>
     <g id="text_2">
      <!-- $\mathdefault{2^{2}}$ -->
      <g style="fill: #262626" transform="translate(111.2064 323.90795) scale(0.1056 -0.1056)">
       <use xlink:href="#DejaVuSans-32" transform="translate(0 0.765625)"/>
       <use xlink:href="#DejaVuSans-32" transform="translate(64.580078 39.046875) scale(0.7)"/>
      </g>
     </g>
    </g>
    <g id="xtick_3">
     <g id="line2d_3">
      <path d="M 176.64 307.584 
L 176.64 41.472 
" clip-path="url(#pd83b1d4e8b)" style="fill: none; stroke: #cccccc; stroke-width: 0.8; stroke-linecap: round"/>
     </g>
     <g id="text_3">
      <!-- $\mathdefault{2^{4}}$ -->
      <g style="fill: #262626" transform="translate(170.7264 323.90795) scale(0.1056 -0.1056)">
       <defs>
        <path id="DejaVuSans-34" d="M 2419 4116 
L 825 1625 
L 2419 1625 
L 2419 4116 
z
M 2253 4666 
L 3047 4666 
L 3047 1625 
L 3713 1625 
L 3713 1100 
L 3047 1100 
L 3047 0 
L 2419 0 
L 2419 1100 
L 313 1100 
L 313 1709 
L 2253 4666 
z
" transform="scale(0.015625)"/>
       </defs>
       <use xlink:href="#DejaVuSans-32" transform="translate(0 0.684375)"/>
       <use xlink:href="#DejaVuSans-34" transform="translate(64.580078 38.965625) scale(0.7)"/>
      </g>
     </g>
    </g>
    <g id="xtick_4">
     <g id="line2d_4">
      <path d="M 236.16 307.584 
L 236.16 41.472 
" clip-path="url(#pd83b1d4e8b)" style="fill: none; stroke: #cccccc; stroke-width: 0.8; stroke-linecap: round"/>
     </g>
     <g id="text_4">
      <!-- $\mathdefault{2^{6}}$ -->
      <g style="fill: #262626" transform="translate(230.2464 323.90795) scale(0.1056 -0.1056)">
       <defs>
        <path id="DejaVuSans-36" d="M 2113 2584 
Q 1688 2584 1439 2293 
Q 1191 2003 1191 1497 
Q 1191 994 1439 701 
Q 1688 409 2113 409 
Q 2538 409 2786 701 
Q 3034 994 3034 1497 
Q 3034 2003 2786 2293 
Q 2538 2584 2113 2584 
z
M 3366 4563 
L 3366 3988 
Q 3128 4100 2886 4159 
Q 2644 4219 2406 4219 
Q 1781 4219 1451 3797 
Q 1122 3375 1075 2522 
Q 1259 2794 1537 2939 
Q 1816 3084 2150 3084 
Q 2853 3084 3261 2657 
Q 3669 2231 3669 1497 
Q 3669 778 3244 343 
Q 2819 -91 2113 -91 
Q 1303 -91 875 529 
Q 447 1150 447 2328 
Q 447 3434 972 4092 
Q 1497 4750 2381 4750 
Q 2619 4750 2861 4703 
Q 3103 4656 3366 4563 
z
" transform="scale(0.015625)"/>
       </defs>
       <use xlink:href="#DejaVuSans-32" transform="translate(0 0.765625)"/>
       <use xlink:href="#DejaVuSans-36" transform="translate(64.580078 39.046875) scale(0.7)"/>
      </g>
     </g>
    </g>
    <g id="xtick_5">
     <g id="line2d_5">
      <path d="M 295.68 307.584 
L 295.68 41.472 
" clip-path="url(#pd83b1d4e8b)" style="fill: none; stroke: #cccccc; stroke-width: 0.8; stroke-linecap: round"/>
     </g>
     <g id="text_5">
      <!-- $\mathdefault{2^{8}}$ -->
      <g style="fill: #262626" transform="translate(289.7664 323.90795) scale(0.1056 -0.1056)">
       <defs>
        <path id="DejaVuSans-38" d="M 2034 2216 
Q 1584 2216 1326 1975 
Q 1069 1734 1069 1313 
Q 1069 891 1326 650 
Q 1584 409 2034 409 
Q 2484 409 2743 651 
Q 3003 894 3003 1313 
Q 3003 1734 2745 1975 
Q 2488 2216 2034 2216 
z
M 1403 2484 
Q 997 2584 770 2862 
Q 544 3141 544 3541 
Q 544 4100 942 4425 
Q 1341 4750 2034 4750 
Q 2731 4750 3128 4425 
Q 3525 4100 3525 3541 
Q 3525 3141 3298 2862 
Q 3072 2584 2669 2484 
Q 3125 2378 3379 2068 
Q 3634 1759 3634 1313 
Q 3634 634 3220 271 
Q 2806 -91 2034 -91 
Q 1263 -91 848 271 
Q 434 634 434 1313 
Q 434 1759 690 2068 
Q 947 2378 1403 2484 
z
M 1172 3481 
Q 1172 3119 1398 2916 
Q 1625 2713 2034 2713 
Q 2441 2713 2670 2916 
Q 2900 3119 2900 3481 
Q 2900 3844 2670 4047 
Q 2441 4250 2034 4250 
Q 1625 4250 1398 4047 
Q 1172 3844 1172 3481 
z
" transform="scale(0.015625)"/>
       </defs>
       <use xlink:href="#DejaVuSans-32" transform="translate(0 0.765625)"/>
       <use xlink:href="#DejaVuSans-38" transform="translate(64.580078 39.046875) scale(0.7)"/>
      </g>
     </g>
    </g>
    <g id="xtick_6">
     <g id="line2d_6">
      <path d="M 355.2 307.584 
L 355.2 41.472 
" clip-path="url(#pd83b1d4e8b)" style="fill: none; stroke: #cccccc; stroke-width: 0.8; stroke-linecap: round"/>
     </g>
     <g id="text_6">
      <!-- $\mathdefault{2^{10}}$ -->
      <g style="fill: #262626" transform="translate(346.9104 323.90795) scale(0.1056 -0.1056)">
       <defs>
        <path id="DejaVuSans-31" d="M 794 531 
L 1825 531 
L 1825 4091 
L 703 3866 
L 703 4441 
L 1819 4666 
L 2450 4666 
L 2450 531 
L 3481 531 
L 3481 0 
L 794 0 
L 794 531 
z
" transform="scale(0.015625)"/>
       </defs>
       <use xlink:href="#DejaVuSans-32" transform="translate(0 0.765625)"/>
       <use xlink:href="#DejaVuSans-31" transform="translate(64.580078 39.046875) scale(0.7)"/>
       <use xlink:href="#DejaVuSans-30" transform="translate(109.116211 39.046875) scale(0.7)"/>
      </g>
     </g>
    </g>
    <g id="xtick_7">
     <g id="line2d_7">
      <path d="M 414.72 307.584 
L 414.72 41.472 
" clip-path="url(#pd83b1d4e8b)" style="fill: none; stroke: #cccccc; stroke-width: 0.8; stroke-linecap: round"/>
     </g>
     <g id="text_7">
      <!-- $\mathdefault{2^{12}}$ -->
      <g style="fill: #262626" transform="translate(406.4304 323.90795) scale(0.1056 -0.1056)">
       <use xlink:href="#DejaVuSans-32" transform="translate(0 0.765625)"/>
       <use xlink:href="#DejaVuSans-31" transform="translate(64.580078 39.046875) scale(0.7)"/>
       <use xlink:href="#DejaVuSans-32" transform="translate(109.116211 39.046875) scale(0.7)"/>
      </g>
     </g>
    </g>
    <g id="text_8">
     <!-- Batch Size -->
     <g style="fill: #262626" transform="translate(205.9479 338.8575) scale(0.1152 -0.1152)">
      <defs>
       <path id="DejaVuSans-42" d="M 1259 2228 
L 1259 519 
L 2272 519 
Q 2781 519 3026 730 
Q 3272 941 3272 1375 
Q 3272 1813 3026 2020 
Q 2781 2228 2272 2228 
L 1259 2228 
z
M 1259 4147 
L 1259 2741 
L 2194 2741 
Q 2656 2741 2882 2914 
Q 3109 3088 3109 3444 
Q 3109 3797 2882 3972 
Q 2656 4147 2194 4147 
L 1259 4147 
z
M 628 4666 
L 2241 4666 
Q 2963 4666 3353 4366 
Q 3744 4066 3744 3513 
Q 3744 3084 3544 2831 
Q 3344 2578 2956 2516 
Q 3422 2416 3680 2098 
Q 3938 1781 3938 1306 
Q 3938 681 3513 340 
Q 3088 0 2303 0 
L 628 0 
L 628 4666 
z
" transform="scale(0.015625)"/>
       <path id="DejaVuSans-61" d="M 2194 1759 
Q 1497 1759 1228 1600 
Q 959 1441 959 1056 
Q 959 750 1161 570 
Q 1363 391 1709 391 
Q 2188 391 2477 730 
Q 2766 1069 2766 1631 
L 2766 1759 
L 2194 1759 
z
M 3341 1997 
L 3341 0 
L 2766 0 
L 2766 531 
Q 2569 213 2275 61 
Q 1981 -91 1556 -91 
Q 1019 -91 701 211 
Q 384 513 384 1019 
Q 384 1609 779 1909 
Q 1175 2209 1959 2209 
L 2766 2209 
L 2766 2266 
Q 2766 2663 2505 2880 
Q 2244 3097 1772 3097 
Q 1472 3097 1187 3025 
Q 903 2953 641 2809 
L 641 3341 
Q 956 3463 1253 3523 
Q 1550 3584 1831 3584 
Q 2591 3584 2966 3190 
Q 3341 2797 3341 1997 
z
" transform="scale(0.015625)"/>
       <path id="DejaVuSans-74" d="M 1172 4494 
L 1172 3500 
L 2356 3500 
L 2356 3053 
L 1172 3053 
L 1172 1153 
Q 1172 725 1289 603 
Q 1406 481 1766 481 
L 2356 481 
L 2356 0 
L 1766 0 
Q 1100 0 847 248 
Q 594 497 594 1153 
L 594 3053 
L 172 3053 
L 172 3500 
L 594 3500 
L 594 4494 
L 1172 4494 
z
" transform="scale(0.015625)"/>
       <path id="DejaVuSans-63" d="M 3122 3366 
L 3122 2828 
Q 2878 2963 2633 3030 
Q 2388 3097 2138 3097 
Q 1578 3097 1268 2742 
Q 959 2388 959 1747 
Q 959 1106 1268 751 
Q 1578 397 2138 397 
Q 2388 397 2633 464 
Q 2878 531 3122 666 
L 3122 134 
Q 2881 22 2623 -34 
Q 2366 -91 2075 -91 
Q 1284 -91 818 406 
Q 353 903 353 1747 
Q 353 2603 823 3093 
Q 1294 3584 2113 3584 
Q 2378 3584 2631 3529 
Q 2884 3475 3122 3366 
z
" transform="scale(0.015625)"/>
       <path id="DejaVuSans-68" d="M 3513 2113 
L 3513 0 
L 2938 0 
L 2938 2094 
Q 2938 2591 2744 2837 
Q 2550 3084 2163 3084 
Q 1697 3084 1428 2787 
Q 1159 2491 1159 1978 
L 1159 0 
L 581 0 
L 581 4863 
L 1159 4863 
L 1159 2956 
Q 1366 3272 1645 3428 
Q 1925 3584 2291 3584 
Q 2894 3584 3203 3211 
Q 3513 2838 3513 2113 
z
" transform="scale(0.015625)"/>
       <path id="DejaVuSans-20" transform="scale(0.015625)"/>
       <path id="DejaVuSans-53" d="M 3425 4513 
L 3425 3897 
Q 3066 4069 2747 4153 
Q 2428 4238 2131 4238 
Q 1616 4238 1336 4038 
Q 1056 3838 1056 3469 
Q 1056 3159 1242 3001 
Q 1428 2844 1947 2747 
L 2328 2669 
Q 3034 2534 3370 2195 
Q 3706 1856 3706 1288 
Q 3706 609 3251 259 
Q 2797 -91 1919 -91 
Q 1588 -91 1214 -16 
Q 841 59 441 206 
L 441 856 
Q 825 641 1194 531 
Q 1563 422 1919 422 
Q 2459 422 2753 634 
Q 3047 847 3047 1241 
Q 3047 1584 2836 1778 
Q 2625 1972 2144 2069 
L 1759 2144 
Q 1053 2284 737 2584 
Q 422 2884 422 3419 
Q 422 4038 858 4394 
Q 1294 4750 2059 4750 
Q 2388 4750 2728 4690 
Q 3069 4631 3425 4513 
z
" transform="scale(0.015625)"/>
       <path id="DejaVuSans-69" d="M 603 3500 
L 1178 3500 
L 1178 0 
L 603 0 
L 603 3500 
z
M 603 4863 
L 1178 4863 
L 1178 4134 
L 603 4134 
L 603 4863 
z
" transform="scale(0.015625)"/>
       <path id="DejaVuSans-7a" d="M 353 3500 
L 3084 3500 
L 3084 2975 
L 922 459 
L 3084 459 
L 3084 0 
L 275 0 
L 275 525 
L 2438 3041 
L 353 3041 
L 353 3500 
z
" transform="scale(0.015625)"/>
       <path id="DejaVuSans-65" d="M 3597 1894 
L 3597 1613 
L 953 1613 
Q 991 1019 1311 708 
Q 1631 397 2203 397 
Q 2534 397 2845 478 
Q 3156 559 3463 722 
L 3463 178 
Q 3153 47 2828 -22 
Q 2503 -91 2169 -91 
Q 1331 -91 842 396 
Q 353 884 353 1716 
Q 353 2575 817 3079 
Q 1281 3584 2069 3584 
Q 2775 3584 3186 3129 
Q 3597 2675 3597 1894 
z
M 3022 2063 
Q 3016 2534 2758 2815 
Q 2500 3097 2075 3097 
Q 1594 3097 1305 2825 
Q 1016 2553 972 2059 
L 3022 2063 
z
" transform="scale(0.015625)"/>
      </defs>
      <use xlink:href="#DejaVuSans-42"/>
      <use xlink:href="#DejaVuSans-61" x="68.603516"/>
      <use xlink:href="#DejaVuSans-74" x="129.882812"/>
      <use xlink:href="#DejaVuSans-63" x="169.091797"/>
      <use xlink:href="#DejaVuSans-68" x="224.072266"/>
      <use xlink:href="#DejaVuSans-20" x="287.451172"/>
      <use xlink:href="#DejaVuSans-53" x="319.238281"/>
      <use xlink:href="#DejaVuSans-69" x="382.714844"/>
      <use xlink:href="#DejaVuSans-7a" x="410.498047"/>
      <use xlink:href="#DejaVuSans-65" x="462.988281"/>
     </g>
    </g>
   </g>
   <g id="matplotlib.axis_2">
    <g id="ytick_1">
     <g id="line2d_8">
      <path d="M 57.6 295.485013 
L 414.72 295.485013 
" clip-path="url(#pd83b1d4e8b)" style="fill: none; stroke: #cccccc; stroke-width: 0.8; stroke-linecap: round"/>
     </g>
     <g id="text_9">
      <!-- 0 -->
      <g style="fill: #262626" transform="translate(42.5812 299.496988) scale(0.1056 -0.1056)">
       <use xlink:href="#DejaVuSans-30"/>
      </g>
     </g>
    </g>
    <g id="ytick_2">
     <g id="line2d_9">
      <path d="M 57.6 244.521372 
L 414.72 244.521372 
" clip-path="url(#pd83b1d4e8b)" style="fill: none; stroke: #cccccc; stroke-width: 0.8; stroke-linecap: round"/>
     </g>
     <g id="text_10">
      <!-- 5 -->
      <g style="fill: #262626" transform="translate(42.5812 248.533347) scale(0.1056 -0.1056)">
       <defs>
        <path id="DejaVuSans-35" d="M 691 4666 
L 3169 4666 
L 3169 4134 
L 1269 4134 
L 1269 2991 
Q 1406 3038 1543 3061 
Q 1681 3084 1819 3084 
Q 2600 3084 3056 2656 
Q 3513 2228 3513 1497 
Q 3513 744 3044 326 
Q 2575 -91 1722 -91 
Q 1428 -91 1123 -41 
Q 819 9 494 109 
L 494 744 
Q 775 591 1075 516 
Q 1375 441 1709 441 
Q 2250 441 2565 725 
Q 2881 1009 2881 1497 
Q 2881 1984 2565 2268 
Q 2250 2553 1709 2553 
Q 1456 2553 1204 2497 
Q 953 2441 691 2322 
L 691 4666 
z
" transform="scale(0.015625)"/>
       </defs>
       <use xlink:href="#DejaVuSans-35"/>
      </g>
     </g>
    </g>
    <g id="ytick_3">
     <g id="line2d_10">
      <path d="M 57.6 193.55773 
L 414.72 193.55773 
" clip-path="url(#pd83b1d4e8b)" style="fill: none; stroke: #cccccc; stroke-width: 0.8; stroke-linecap: round"/>
     </g>
     <g id="text_11">
      <!-- 10 -->
      <g style="fill: #262626" transform="translate(35.8624 197.569705) scale(0.1056 -0.1056)">
       <use xlink:href="#DejaVuSans-31"/>
       <use xlink:href="#DejaVuSans-30" x="63.623047"/>
      </g>
     </g>
    </g>
    <g id="ytick_4">
     <g id="line2d_11">
      <path d="M 57.6 142.594088 
L 414.72 142.594088 
" clip-path="url(#pd83b1d4e8b)" style="fill: none; stroke: #cccccc; stroke-width: 0.8; stroke-linecap: round"/>
     </g>
     <g id="text_12">
      <!-- 15 -->
      <g style="fill: #262626" transform="translate(35.8624 146.606063) scale(0.1056 -0.1056)">
       <use xlink:href="#DejaVuSans-31"/>
       <use xlink:href="#DejaVuSans-35" x="63.623047"/>
      </g>
     </g>
    </g>
    <g id="ytick_5">
     <g id="line2d_12">
      <path d="M 57.6 91.630447 
L 414.72 91.630447 
" clip-path="url(#pd83b1d4e8b)" style="fill: none; stroke: #cccccc; stroke-width: 0.8; stroke-linecap: round"/>
     </g>
     <g id="text_13">
      <!-- 20 -->
      <g style="fill: #262626" transform="translate(35.8624 95.642422) scale(0.1056 -0.1056)">
       <use xlink:href="#DejaVuSans-32"/>
       <use xlink:href="#DejaVuSans-30" x="63.623047"/>
      </g>
     </g>
    </g>
    <g id="text_14">
     <!-- Execution Time (s) -->
     <g style="fill: #262626" transform="translate(29.4666 228.0411) rotate(-90) scale(0.1152 -0.1152)">
      <defs>
       <path id="DejaVuSans-45" d="M 628 4666 
L 3578 4666 
L 3578 4134 
L 1259 4134 
L 1259 2753 
L 3481 2753 
L 3481 2222 
L 1259 2222 
L 1259 531 
L 3634 531 
L 3634 0 
L 628 0 
L 628 4666 
z
" transform="scale(0.015625)"/>
       <path id="DejaVuSans-78" d="M 3513 3500 
L 2247 1797 
L 3578 0 
L 2900 0 
L 1881 1375 
L 863 0 
L 184 0 
L 1544 1831 
L 300 3500 
L 978 3500 
L 1906 2253 
L 2834 3500 
L 3513 3500 
z
" transform="scale(0.015625)"/>
       <path id="DejaVuSans-75" d="M 544 1381 
L 544 3500 
L 1119 3500 
L 1119 1403 
Q 1119 906 1312 657 
Q 1506 409 1894 409 
Q 2359 409 2629 706 
Q 2900 1003 2900 1516 
L 2900 3500 
L 3475 3500 
L 3475 0 
L 2900 0 
L 2900 538 
Q 2691 219 2414 64 
Q 2138 -91 1772 -91 
Q 1169 -91 856 284 
Q 544 659 544 1381 
z
M 1991 3584 
L 1991 3584 
z
" transform="scale(0.015625)"/>
       <path id="DejaVuSans-6f" d="M 1959 3097 
Q 1497 3097 1228 2736 
Q 959 2375 959 1747 
Q 959 1119 1226 758 
Q 1494 397 1959 397 
Q 2419 397 2687 759 
Q 2956 1122 2956 1747 
Q 2956 2369 2687 2733 
Q 2419 3097 1959 3097 
z
M 1959 3584 
Q 2709 3584 3137 3096 
Q 3566 2609 3566 1747 
Q 3566 888 3137 398 
Q 2709 -91 1959 -91 
Q 1206 -91 779 398 
Q 353 888 353 1747 
Q 353 2609 779 3096 
Q 1206 3584 1959 3584 
z
" transform="scale(0.015625)"/>
       <path id="DejaVuSans-6e" d="M 3513 2113 
L 3513 0 
L 2938 0 
L 2938 2094 
Q 2938 2591 2744 2837 
Q 2550 3084 2163 3084 
Q 1697 3084 1428 2787 
Q 1159 2491 1159 1978 
L 1159 0 
L 581 0 
L 581 3500 
L 1159 3500 
L 1159 2956 
Q 1366 3272 1645 3428 
Q 1925 3584 2291 3584 
Q 2894 3584 3203 3211 
Q 3513 2838 3513 2113 
z
" transform="scale(0.015625)"/>
       <path id="DejaVuSans-54" d="M -19 4666 
L 3928 4666 
L 3928 4134 
L 2272 4134 
L 2272 0 
L 1638 0 
L 1638 4134 
L -19 4134 
L -19 4666 
z
" transform="scale(0.015625)"/>
       <path id="DejaVuSans-6d" d="M 3328 2828 
Q 3544 3216 3844 3400 
Q 4144 3584 4550 3584 
Q 5097 3584 5394 3201 
Q 5691 2819 5691 2113 
L 5691 0 
L 5113 0 
L 5113 2094 
Q 5113 2597 4934 2840 
Q 4756 3084 4391 3084 
Q 3944 3084 3684 2787 
Q 3425 2491 3425 1978 
L 3425 0 
L 2847 0 
L 2847 2094 
Q 2847 2600 2669 2842 
Q 2491 3084 2119 3084 
Q 1678 3084 1418 2786 
Q 1159 2488 1159 1978 
L 1159 0 
L 581 0 
L 581 3500 
L 1159 3500 
L 1159 2956 
Q 1356 3278 1631 3431 
Q 1906 3584 2284 3584 
Q 2666 3584 2933 3390 
Q 3200 3197 3328 2828 
z
" transform="scale(0.015625)"/>
       <path id="DejaVuSans-28" d="M 1984 4856 
Q 1566 4138 1362 3434 
Q 1159 2731 1159 2009 
Q 1159 1288 1364 580 
Q 1569 -128 1984 -844 
L 1484 -844 
Q 1016 -109 783 600 
Q 550 1309 550 2009 
Q 550 2706 781 3412 
Q 1013 4119 1484 4856 
L 1984 4856 
z
" transform="scale(0.015625)"/>
       <path id="DejaVuSans-73" d="M 2834 3397 
L 2834 2853 
Q 2591 2978 2328 3040 
Q 2066 3103 1784 3103 
Q 1356 3103 1142 2972 
Q 928 2841 928 2578 
Q 928 2378 1081 2264 
Q 1234 2150 1697 2047 
L 1894 2003 
Q 2506 1872 2764 1633 
Q 3022 1394 3022 966 
Q 3022 478 2636 193 
Q 2250 -91 1575 -91 
Q 1294 -91 989 -36 
Q 684 19 347 128 
L 347 722 
Q 666 556 975 473 
Q 1284 391 1588 391 
Q 1994 391 2212 530 
Q 2431 669 2431 922 
Q 2431 1156 2273 1281 
Q 2116 1406 1581 1522 
L 1381 1569 
Q 847 1681 609 1914 
Q 372 2147 372 2553 
Q 372 3047 722 3315 
Q 1072 3584 1716 3584 
Q 2034 3584 2315 3537 
Q 2597 3491 2834 3397 
z
" transform="scale(0.015625)"/>
       <path id="DejaVuSans-29" d="M 513 4856 
L 1013 4856 
Q 1481 4119 1714 3412 
Q 1947 2706 1947 2009 
Q 1947 1309 1714 600 
Q 1481 -109 1013 -844 
L 513 -844 
Q 928 -128 1133 580 
Q 1338 1288 1338 2009 
Q 1338 2731 1133 3434 
Q 928 4138 513 4856 
z
" transform="scale(0.015625)"/>
      </defs>
      <use xlink:href="#DejaVuSans-45"/>
      <use xlink:href="#DejaVuSans-78" x="63.183594"/>
      <use xlink:href="#DejaVuSans-65" x="119.238281"/>
      <use xlink:href="#DejaVuSans-63" x="180.761719"/>
      <use xlink:href="#DejaVuSans-75" x="235.742188"/>
      <use xlink:href="#DejaVuSans-74" x="299.121094"/>
      <use xlink:href="#DejaVuSans-69" x="338.330078"/>
      <use xlink:href="#DejaVuSans-6f" x="366.113281"/>
      <use xlink:href="#DejaVuSans-6e" x="427.294922"/>
      <use xlink:href="#DejaVuSans-20" x="490.673828"/>
      <use xlink:href="#DejaVuSans-54" x="522.460938"/>
      <use xlink:href="#DejaVuSans-69" x="580.419922"/>
      <use xlink:href="#DejaVuSans-6d" x="608.203125"/>
      <use xlink:href="#DejaVuSans-65" x="705.615234"/>
      <use xlink:href="#DejaVuSans-20" x="767.138672"/>
      <use xlink:href="#DejaVuSans-28" x="798.925781"/>
      <use xlink:href="#DejaVuSans-73" x="837.939453"/>
      <use xlink:href="#DejaVuSans-29" x="890.039062"/>
     </g>
    </g>
   </g>
   <g id="PolyCollection_1">
    <defs>
     <path id="m977ef94a41" d="M 57.6 -50.147221 
L 57.6 -50.113233 
L 87.36 -50.12209 
L 117.12 -50.14568 
L 146.88 -50.156114 
L 176.64 -50.197402 
L 206.4 -50.321689 
L 236.16 -50.523751 
L 265.92 -50.916849 
L 295.68 -51.766472 
L 325.44 -53.35691 
L 355.2 -56.628539 
L 384.96 -63.445203 
L 414.72 -76.650269 
L 414.72 -77.45064 
L 414.72 -77.45064 
L 384.96 -63.81845 
L 355.2 -56.974316 
L 325.44 -53.550984 
L 295.68 -51.929721 
L 265.92 -51.00318 
L 236.16 -50.572142 
L 206.4 -50.359937 
L 176.64 -50.24667 
L 146.88 -50.175735 
L 117.12 -50.153 
L 87.36 -50.133389 
L 57.6 -50.147221 
z
" style="stroke: #4c72b0; stroke-opacity: 0.2; stroke-width: 0.8"/>
    </defs>
    <g clip-path="url(#pd83b1d4e8b)">
     <use xlink:href="#m977ef94a41" x="0" y="345.6" style="fill: #4c72b0; fill-opacity: 0.2; stroke: #4c72b0; stroke-opacity: 0.2; stroke-width: 0.8"/>
    </g>
   </g>
   <g id="PolyCollection_2">
    <defs>
     <path id="md7b316b8f9" d="M 57.6 -50.131395 
L 57.6 -50.120397 
L 87.36 -50.124132 
L 117.12 -50.13798 
L 146.88 -50.161645 
L 176.64 -50.212722 
L 206.4 -50.312744 
L 236.16 -50.508622 
L 265.92 -50.896902 
L 295.68 -51.754945 
L 325.44 -53.469369 
L 355.2 -56.773308 
L 384.96 -63.464084 
L 414.72 -76.778095 
L 414.72 -77.782968 
L 414.72 -77.782968 
L 384.96 -63.900499 
L 355.2 -57.063176 
L 325.44 -53.60465 
L 295.68 -51.847989 
L 265.92 -50.947071 
L 236.16 -50.55869 
L 206.4 -50.352851 
L 176.64 -50.254254 
L 146.88 -50.17624 
L 117.12 -50.159674 
L 87.36 -50.134451 
L 57.6 -50.131395 
z
" style="stroke: #4c72b0; stroke-opacity: 0.2; stroke-width: 0.8"/>
    </defs>
    <g clip-path="url(#pd83b1d4e8b)">
     <use xlink:href="#md7b316b8f9" x="0" y="345.6" style="fill: #4c72b0; fill-opacity: 0.2; stroke: #4c72b0; stroke-opacity: 0.2; stroke-width: 0.8"/>
    </g>
   </g>
   <g id="PolyCollection_3">
    <defs>
     <path id="mbaa677526c" d="M 57.6 -50.184605 
L 57.6 -50.138102 
L 87.36 -50.160627 
L 117.12 -50.248097 
L 146.88 -50.374429 
L 176.64 -50.635181 
L 206.4 -51.155989 
L 236.16 -52.18969 
L 265.92 -54.400408 
L 295.68 -58.581463 
L 325.44 -67.168437 
L 355.2 -84.112257 
L 384.96 -118.631579 
L 414.72 -186.76436 
L 414.72 -190.190104 
L 414.72 -190.190104 
L 384.96 -120.129609 
L 355.2 -85.484368 
L 325.44 -67.590336 
L 295.68 -58.828448 
L 265.92 -54.499454 
L 236.16 -52.31685 
L 206.4 -51.220399 
L 176.64 -50.662019 
L 146.88 -50.390245 
L 117.12 -50.254755 
L 87.36 -50.244531 
L 57.6 -50.184605 
z
" style="stroke: #dd8452; stroke-opacity: 0.2; stroke-width: 0.8"/>
    </defs>
    <g clip-path="url(#pd83b1d4e8b)">
     <use xlink:href="#mbaa677526c" x="0" y="345.6" style="fill: #dd8452; fill-opacity: 0.2; stroke: #dd8452; stroke-opacity: 0.2; stroke-width: 0.8"/>
    </g>
   </g>
   <g id="PolyCollection_4">
    <defs>
     <path id="m4a1fe9e5b1" d="M 57.6 -50.345665 
L 57.6 -50.112 
L 87.36 -50.223026 
L 117.12 -50.336179 
L 146.88 -50.547815 
L 176.64 -51.007281 
L 206.4 -51.889214 
L 236.16 -53.699665 
L 265.92 -57.244853 
L 295.68 -64.354799 
L 325.44 -78.596959 
L 355.2 -107.142895 
L 384.96 -163.952323 
L 414.72 -282.000947 
L 414.72 -292.032 
L 414.72 -292.032 
L 384.96 -170.963352 
L 355.2 -110.554432 
L 325.44 -80.323267 
L 295.68 -65.281883 
L 265.92 -57.644811 
L 236.16 -53.844116 
L 206.4 -52.011668 
L 176.64 -51.083697 
L 146.88 -50.591034 
L 117.12 -50.347774 
L 87.36 -50.237266 
L 57.6 -50.345665 
z
" style="stroke: #dd8452; stroke-opacity: 0.2; stroke-width: 0.8"/>
    </defs>
    <g clip-path="url(#pd83b1d4e8b)">
     <use xlink:href="#m4a1fe9e5b1" x="0" y="345.6" style="fill: #dd8452; fill-opacity: 0.2; stroke: #dd8452; stroke-opacity: 0.2; stroke-width: 0.8"/>
    </g>
   </g>
   <g id="line2d_13">
    <path d="M 57.6 295.469773 
L 87.36 295.47226 
L 117.12 295.45066 
L 146.88 295.434076 
L 176.64 295.377964 
L 206.4 295.259187 
L 236.16 295.052053 
L 265.92 294.639986 
L 295.68 293.751904 
L 325.44 292.146053 
L 355.2 288.798572 
L 384.96 281.968173 
L 414.72 268.549545 
" clip-path="url(#pd83b1d4e8b)" style="fill: none; stroke: #4c72b0; stroke-width: 1.2; stroke-linecap: round"/>
   </g>
   <g id="line2d_14">
    <path d="M 57.6 295.474104 
L 87.36 295.470709 
L 117.12 295.451173 
L 146.88 295.431057 
L 176.64 295.366512 
L 206.4 295.267202 
L 236.16 295.066344 
L 265.92 294.678013 
L 295.68 293.798533 
L 325.44 292.06299 
L 355.2 288.681758 
L 384.96 281.917708 
L 414.72 268.319469 
" clip-path="url(#pd83b1d4e8b)" style="fill: none; stroke-dasharray: 4.8,1.8; stroke-dashoffset: 0; stroke: #4c72b0; stroke-width: 1.2"/>
   </g>
   <g id="line2d_15">
    <path d="M 57.6 295.438646 
L 87.36 295.397421 
L 117.12 295.348574 
L 146.88 295.217663 
L 176.64 294.9514 
L 206.4 294.411806 
L 236.16 293.34673 
L 265.92 291.150069 
L 295.68 286.895045 
L 325.44 278.220614 
L 355.2 260.801687 
L 384.96 226.219406 
L 414.72 157.122768 
" clip-path="url(#pd83b1d4e8b)" style="fill: none; stroke: #dd8452; stroke-width: 1.2; stroke-linecap: round"/>
   </g>
   <g id="line2d_16">
    <path d="M 57.6 295.371168 
L 87.36 295.369854 
L 117.12 295.258023 
L 146.88 295.030575 
L 176.64 294.554511 
L 206.4 293.649559 
L 236.16 291.828109 
L 265.92 288.155168 
L 295.68 280.781659 
L 325.44 266.139887 
L 355.2 236.751337 
L 384.96 178.142162 
L 414.72 58.583526 
" clip-path="url(#pd83b1d4e8b)" style="fill: none; stroke-dasharray: 4.8,1.8; stroke-dashoffset: 0; stroke: #dd8452; stroke-width: 1.2"/>
   </g>
   <g id="line2d_17"/>
   <g id="line2d_18"/>
   <g id="line2d_19"/>
   <g id="line2d_20"/>
   <g id="patch_3">
    <path d="M 57.6 307.584 
L 57.6 41.472 
" style="fill: none; stroke: #cccccc; stroke-linejoin: miter; stroke-linecap: square"/>
   </g>
   <g id="patch_4">
    <path d="M 414.72 307.584 
L 414.72 41.472 
" style="fill: none; stroke: #cccccc; stroke-linejoin: miter; stroke-linecap: square"/>
   </g>
   <g id="patch_5">
    <path d="M 57.6 307.584 
L 414.72 307.584 
" style="fill: none; stroke: #cccccc; stroke-linejoin: miter; stroke-linecap: square"/>
   </g>
   <g id="patch_6">
    <path d="M 57.6 41.472 
L 414.72 41.472 
" style="fill: none; stroke: #cccccc; stroke-linejoin: miter; stroke-linecap: square"/>
   </g>
   <g id="text_15">
    <!-- Execution Time of MjStep and Naive FD (Over 5 Runs) -->
    <g style="fill: #262626" transform="translate(81.0531 35.472) scale(0.1152 -0.1152)">
     <defs>
      <path id="DejaVuSans-66" d="M 2375 4863 
L 2375 4384 
L 1825 4384 
Q 1516 4384 1395 4259 
Q 1275 4134 1275 3809 
L 1275 3500 
L 2222 3500 
L 2222 3053 
L 1275 3053 
L 1275 0 
L 697 0 
L 697 3053 
L 147 3053 
L 147 3500 
L 697 3500 
L 697 3744 
Q 697 4328 969 4595 
Q 1241 4863 1831 4863 
L 2375 4863 
z
" transform="scale(0.015625)"/>
      <path id="DejaVuSans-4d" d="M 628 4666 
L 1569 4666 
L 2759 1491 
L 3956 4666 
L 4897 4666 
L 4897 0 
L 4281 0 
L 4281 4097 
L 3078 897 
L 2444 897 
L 1241 4097 
L 1241 0 
L 628 0 
L 628 4666 
z
" transform="scale(0.015625)"/>
      <path id="DejaVuSans-6a" d="M 603 3500 
L 1178 3500 
L 1178 -63 
Q 1178 -731 923 -1031 
Q 669 -1331 103 -1331 
L -116 -1331 
L -116 -844 
L 38 -844 
Q 366 -844 484 -692 
Q 603 -541 603 -63 
L 603 3500 
z
M 603 4863 
L 1178 4863 
L 1178 4134 
L 603 4134 
L 603 4863 
z
" transform="scale(0.015625)"/>
      <path id="DejaVuSans-70" d="M 1159 525 
L 1159 -1331 
L 581 -1331 
L 581 3500 
L 1159 3500 
L 1159 2969 
Q 1341 3281 1617 3432 
Q 1894 3584 2278 3584 
Q 2916 3584 3314 3078 
Q 3713 2572 3713 1747 
Q 3713 922 3314 415 
Q 2916 -91 2278 -91 
Q 1894 -91 1617 61 
Q 1341 213 1159 525 
z
M 3116 1747 
Q 3116 2381 2855 2742 
Q 2594 3103 2138 3103 
Q 1681 3103 1420 2742 
Q 1159 2381 1159 1747 
Q 1159 1113 1420 752 
Q 1681 391 2138 391 
Q 2594 391 2855 752 
Q 3116 1113 3116 1747 
z
" transform="scale(0.015625)"/>
      <path id="DejaVuSans-64" d="M 2906 2969 
L 2906 4863 
L 3481 4863 
L 3481 0 
L 2906 0 
L 2906 525 
Q 2725 213 2448 61 
Q 2172 -91 1784 -91 
Q 1150 -91 751 415 
Q 353 922 353 1747 
Q 353 2572 751 3078 
Q 1150 3584 1784 3584 
Q 2172 3584 2448 3432 
Q 2725 3281 2906 2969 
z
M 947 1747 
Q 947 1113 1208 752 
Q 1469 391 1925 391 
Q 2381 391 2643 752 
Q 2906 1113 2906 1747 
Q 2906 2381 2643 2742 
Q 2381 3103 1925 3103 
Q 1469 3103 1208 2742 
Q 947 2381 947 1747 
z
" transform="scale(0.015625)"/>
      <path id="DejaVuSans-4e" d="M 628 4666 
L 1478 4666 
L 3547 763 
L 3547 4666 
L 4159 4666 
L 4159 0 
L 3309 0 
L 1241 3903 
L 1241 0 
L 628 0 
L 628 4666 
z
" transform="scale(0.015625)"/>
      <path id="DejaVuSans-76" d="M 191 3500 
L 800 3500 
L 1894 563 
L 2988 3500 
L 3597 3500 
L 2284 0 
L 1503 0 
L 191 3500 
z
" transform="scale(0.015625)"/>
      <path id="DejaVuSans-46" d="M 628 4666 
L 3309 4666 
L 3309 4134 
L 1259 4134 
L 1259 2759 
L 3109 2759 
L 3109 2228 
L 1259 2228 
L 1259 0 
L 628 0 
L 628 4666 
z
" transform="scale(0.015625)"/>
      <path id="DejaVuSans-44" d="M 1259 4147 
L 1259 519 
L 2022 519 
Q 2988 519 3436 956 
Q 3884 1394 3884 2338 
Q 3884 3275 3436 3711 
Q 2988 4147 2022 4147 
L 1259 4147 
z
M 628 4666 
L 1925 4666 
Q 3281 4666 3915 4102 
Q 4550 3538 4550 2338 
Q 4550 1131 3912 565 
Q 3275 0 1925 0 
L 628 0 
L 628 4666 
z
" transform="scale(0.015625)"/>
      <path id="DejaVuSans-4f" d="M 2522 4238 
Q 1834 4238 1429 3725 
Q 1025 3213 1025 2328 
Q 1025 1447 1429 934 
Q 1834 422 2522 422 
Q 3209 422 3611 934 
Q 4013 1447 4013 2328 
Q 4013 3213 3611 3725 
Q 3209 4238 2522 4238 
z
M 2522 4750 
Q 3503 4750 4090 4092 
Q 4678 3434 4678 2328 
Q 4678 1225 4090 567 
Q 3503 -91 2522 -91 
Q 1538 -91 948 565 
Q 359 1222 359 2328 
Q 359 3434 948 4092 
Q 1538 4750 2522 4750 
z
" transform="scale(0.015625)"/>
      <path id="DejaVuSans-72" d="M 2631 2963 
Q 2534 3019 2420 3045 
Q 2306 3072 2169 3072 
Q 1681 3072 1420 2755 
Q 1159 2438 1159 1844 
L 1159 0 
L 581 0 
L 581 3500 
L 1159 3500 
L 1159 2956 
Q 1341 3275 1631 3429 
Q 1922 3584 2338 3584 
Q 2397 3584 2469 3576 
Q 2541 3569 2628 3553 
L 2631 2963 
z
" transform="scale(0.015625)"/>
      <path id="DejaVuSans-52" d="M 2841 2188 
Q 3044 2119 3236 1894 
Q 3428 1669 3622 1275 
L 4263 0 
L 3584 0 
L 2988 1197 
Q 2756 1666 2539 1819 
Q 2322 1972 1947 1972 
L 1259 1972 
L 1259 0 
L 628 0 
L 628 4666 
L 2053 4666 
Q 2853 4666 3247 4331 
Q 3641 3997 3641 3322 
Q 3641 2881 3436 2590 
Q 3231 2300 2841 2188 
z
M 1259 4147 
L 1259 2491 
L 2053 2491 
Q 2509 2491 2742 2702 
Q 2975 2913 2975 3322 
Q 2975 3731 2742 3939 
Q 2509 4147 2053 4147 
L 1259 4147 
z
" transform="scale(0.015625)"/>
     </defs>
     <use xlink:href="#DejaVuSans-45"/>
     <use xlink:href="#DejaVuSans-78" x="63.183594"/>
     <use xlink:href="#DejaVuSans-65" x="119.238281"/>
     <use xlink:href="#DejaVuSans-63" x="180.761719"/>
     <use xlink:href="#DejaVuSans-75" x="235.742188"/>
     <use xlink:href="#DejaVuSans-74" x="299.121094"/>
     <use xlink:href="#DejaVuSans-69" x="338.330078"/>
     <use xlink:href="#DejaVuSans-6f" x="366.113281"/>
     <use xlink:href="#DejaVuSans-6e" x="427.294922"/>
     <use xlink:href="#DejaVuSans-20" x="490.673828"/>
     <use xlink:href="#DejaVuSans-54" x="522.460938"/>
     <use xlink:href="#DejaVuSans-69" x="580.419922"/>
     <use xlink:href="#DejaVuSans-6d" x="608.203125"/>
     <use xlink:href="#DejaVuSans-65" x="705.615234"/>
     <use xlink:href="#DejaVuSans-20" x="767.138672"/>
     <use xlink:href="#DejaVuSans-6f" x="798.925781"/>
     <use xlink:href="#DejaVuSans-66" x="860.107422"/>
     <use xlink:href="#DejaVuSans-20" x="895.3125"/>
     <use xlink:href="#DejaVuSans-4d" x="927.099609"/>
     <use xlink:href="#DejaVuSans-6a" x="1013.378906"/>
     <use xlink:href="#DejaVuSans-53" x="1041.162109"/>
     <use xlink:href="#DejaVuSans-74" x="1104.638672"/>
     <use xlink:href="#DejaVuSans-65" x="1143.847656"/>
     <use xlink:href="#DejaVuSans-70" x="1205.371094"/>
     <use xlink:href="#DejaVuSans-20" x="1268.847656"/>
     <use xlink:href="#DejaVuSans-61" x="1300.634766"/>
     <use xlink:href="#DejaVuSans-6e" x="1361.914062"/>
     <use xlink:href="#DejaVuSans-64" x="1425.292969"/>
     <use xlink:href="#DejaVuSans-20" x="1488.769531"/>
     <use xlink:href="#DejaVuSans-4e" x="1520.556641"/>
     <use xlink:href="#DejaVuSans-61" x="1595.361328"/>
     <use xlink:href="#DejaVuSans-69" x="1656.640625"/>
     <use xlink:href="#DejaVuSans-76" x="1684.423828"/>
     <use xlink:href="#DejaVuSans-65" x="1743.603516"/>
     <use xlink:href="#DejaVuSans-20" x="1805.126953"/>
     <use xlink:href="#DejaVuSans-46" x="1836.914062"/>
     <use xlink:href="#DejaVuSans-44" x="1894.433594"/>
     <use xlink:href="#DejaVuSans-20" x="1971.435547"/>
     <use xlink:href="#DejaVuSans-28" x="2003.222656"/>
     <use xlink:href="#DejaVuSans-4f" x="2042.236328"/>
     <use xlink:href="#DejaVuSans-76" x="2120.947266"/>
     <use xlink:href="#DejaVuSans-65" x="2180.126953"/>
     <use xlink:href="#DejaVuSans-72" x="2241.650391"/>
     <use xlink:href="#DejaVuSans-20" x="2282.763672"/>
     <use xlink:href="#DejaVuSans-35" x="2314.550781"/>
     <use xlink:href="#DejaVuSans-20" x="2378.173828"/>
     <use xlink:href="#DejaVuSans-52" x="2409.960938"/>
     <use xlink:href="#DejaVuSans-75" x="2474.943359"/>
     <use xlink:href="#DejaVuSans-6e" x="2538.322266"/>
     <use xlink:href="#DejaVuSans-73" x="2601.701172"/>
     <use xlink:href="#DejaVuSans-29" x="2653.800781"/>
    </g>
   </g>
   <g id="legend_1">
    <g id="patch_7">
     <path d="M 152.768175 96.4203 
L 319.551825 96.4203 
Q 321.663825 96.4203 321.663825 94.3083 
L 321.663825 48.864 
Q 321.663825 46.752 319.551825 46.752 
L 152.768175 46.752 
Q 150.656175 46.752 150.656175 48.864 
L 150.656175 94.3083 
Q 150.656175 96.4203 152.768175 96.4203 
z
" style="fill: #ffffff; opacity: 0.8; stroke: #cccccc; stroke-width: 0.8; stroke-linejoin: miter"/>
    </g>
    <g id="text_16">
     <!-- method -->
     <g style="fill: #262626" transform="translate(184.448175 58.99995) scale(0.1056 -0.1056)">
      <use xlink:href="#DejaVuSans-6d"/>
      <use xlink:href="#DejaVuSans-65" x="97.412109"/>
      <use xlink:href="#DejaVuSans-74" x="158.935547"/>
      <use xlink:href="#DejaVuSans-68" x="198.144531"/>
      <use xlink:href="#DejaVuSans-6f" x="261.523438"/>
      <use xlink:href="#DejaVuSans-64" x="322.705078"/>
     </g>
    </g>
    <g id="line2d_21">
     <path d="M 154.880175 70.80405 
L 165.440175 70.80405 
L 176.000175 70.80405 
" style="fill: none; stroke: #4c72b0; stroke-width: 1.2; stroke-linecap: round"/>
    </g>
    <g id="text_17">
     <!-- MjStep -->
     <g style="fill: #262626" transform="translate(184.448175 74.50005) scale(0.1056 -0.1056)">
      <use xlink:href="#DejaVuSans-4d"/>
      <use xlink:href="#DejaVuSans-6a" x="86.279297"/>
      <use xlink:href="#DejaVuSans-53" x="114.0625"/>
      <use xlink:href="#DejaVuSans-74" x="177.539062"/>
      <use xlink:href="#DejaVuSans-65" x="216.748047"/>
      <use xlink:href="#DejaVuSans-70" x="278.271484"/>
     </g>
    </g>
    <g id="line2d_22">
     <path d="M 154.880175 86.30415 
L 165.440175 86.30415 
L 176.000175 86.30415 
" style="fill: none; stroke: #dd8452; stroke-width: 1.2; stroke-linecap: round"/>
    </g>
    <g id="text_18">
     <!-- Naive FD -->
     <g style="fill: #262626" transform="translate(184.448175 90.00015) scale(0.1056 -0.1056)">
      <use xlink:href="#DejaVuSans-4e"/>
      <use xlink:href="#DejaVuSans-61" x="74.804688"/>
      <use xlink:href="#DejaVuSans-69" x="136.083984"/>
      <use xlink:href="#DejaVuSans-76" x="163.867188"/>
      <use xlink:href="#DejaVuSans-65" x="223.046875"/>
      <use xlink:href="#DejaVuSans-20" x="284.570312"/>
      <use xlink:href="#DejaVuSans-46" x="316.357422"/>
      <use xlink:href="#DejaVuSans-44" x="373.876953"/>
     </g>
    </g>
    <g id="text_19">
     <!-- device -->
     <g style="fill: #262626" transform="translate(282.750225 58.99995) scale(0.1056 -0.1056)">
      <use xlink:href="#DejaVuSans-64"/>
      <use xlink:href="#DejaVuSans-65" x="63.476562"/>
      <use xlink:href="#DejaVuSans-76" x="125"/>
      <use xlink:href="#DejaVuSans-69" x="184.179688"/>
      <use xlink:href="#DejaVuSans-63" x="211.962891"/>
      <use xlink:href="#DejaVuSans-65" x="266.943359"/>
     </g>
    </g>
    <g id="line2d_23">
     <path d="M 253.182225 70.80405 
L 263.742225 70.80405 
L 274.302225 70.80405 
" style="fill: none; stroke: #333333; stroke-width: 1.2; stroke-linecap: round"/>
    </g>
    <g id="text_20">
     <!-- cpu -->
     <g style="fill: #262626" transform="translate(282.750225 74.50005) scale(0.1056 -0.1056)">
      <use xlink:href="#DejaVuSans-63"/>
      <use xlink:href="#DejaVuSans-70" x="54.980469"/>
      <use xlink:href="#DejaVuSans-75" x="118.457031"/>
     </g>
    </g>
    <g id="line2d_24">
     <path d="M 253.182225 86.30415 
L 263.742225 86.30415 
L 274.302225 86.30415 
" style="fill: none; stroke-dasharray: 4.8,1.8; stroke-dashoffset: 0; stroke: #333333; stroke-width: 1.2"/>
    </g>
    <g id="text_21">
     <!-- cuda -->
     <g style="fill: #262626" transform="translate(282.750225 90.00015) scale(0.1056 -0.1056)">
      <use xlink:href="#DejaVuSans-63"/>
      <use xlink:href="#DejaVuSans-75" x="54.980469"/>
      <use xlink:href="#DejaVuSans-64" x="118.359375"/>
      <use xlink:href="#DejaVuSans-61" x="181.835938"/>
     </g>
    </g>
   </g>
  </g>
 </g>
 <defs>
  <clipPath id="pd83b1d4e8b">
   <rect x="57.6" y="41.472" width="357.12" height="266.112"/>
  </clipPath>
 </defs>
</svg>
